<?xml version="1.0" encoding="UTF-8"?>
<!DOCTYPE svg  PUBLIC '-//W3C//DTD SVG 1.1//EN'  'http://www.w3.org/Graphics/SVG/1.1/DTD/svg11.dtd'>
<svg clip-rule="evenodd" fill-rule="evenodd" stroke-linecap="round" stroke-linejoin="round" stroke-miterlimit="2" version="1.1" viewBox="0 0 64 64" xml:space="preserve" xmlns="http://www.w3.org/2000/svg" xmlns:serif="http://www.serif.com/"><rect width="64" height="64" fill="none" serif:id="83 - Spoon"/><path d="m36.06 28.535c-1.969-3.85-1.082-8.999 2.492-12.573 4.325-4.325 10.957-4.716 14.802-0.871 3.844 3.844 3.454 10.477-0.871 14.802-3.574 3.574-8.724 4.461-12.574 2.492l-16.157 18.135c-0.566 0.636-1.369 1.01-2.22 1.034-0.851 0.025-1.674-0.302-2.276-0.904-0.479-0.479-0.983-0.983-1.461-1.462-0.602-0.601-0.929-1.425-0.905-2.276 0.025-0.851 0.399-1.654 1.034-2.22l18.136-16.157z" fill="none" stroke="#444f58" stroke-width="2px"/><path d="m52.139 18.667s2.104 6.245-3.695 9.851" fill="none" stroke="#444f58" stroke-width="2px"/><path d="m25.863 24.264s0.441-6.576-6.086-8.582" fill="none" stroke="#444f58" stroke-width="2px"/><path d="m39.5 39.085 6.576 5.607c0.635 0.566 1.009 1.369 1.034 2.22 0.024 0.851-0.303 1.675-0.905 2.276-0.478 0.479-0.982 0.983-1.461 1.462-0.602 0.602-1.425 0.929-2.276 0.904-0.851-0.024-1.654-0.398-2.22-1.034l-5.273-6.356m-7.5-7.981-3.384-3.798c-3.85 1.969-9 1.082-12.574-2.492-4.325-4.325-4.715-10.958-0.871-14.802 3.845-3.845 10.477-3.454 14.802 0.871 3.574 3.574 4.461 8.723 2.492 12.573l4.06 3.617" fill="none" stroke="#444f58" stroke-width="2px"/></svg>
